<?xml version="1.0" encoding="utf-8"?><!-- Uploaded to: SVG Repo, www.svgrepo.com, Generator: SVG Repo Mixer Tools -->
<svg width="800px" height="800px" viewBox="0 0 24 24" fill="none" xmlns="http://www.w3.org/2000/svg">
<path fill-rule="evenodd" clip-rule="evenodd" d="M6.23607 1C5.09976 1 4.06097 1.64201 3.55279 2.65836L1.14806 7.46782C0.647975 8.46799 0.745665 9.66329 1.40152 10.569L9.57018 21.8495C10.7679 23.5035 13.2321 23.5035 14.4298 21.8495L22.5985 10.569C23.2543 9.66329 23.352 8.468 22.852 7.46782L20.4472 2.65836C19.939 1.64201 18.9003 1 17.7639 1H6.23607ZM5.34165 3.55279C5.51104 3.214 5.8573 3 6.23607 3H8.67428L7.24571 8H3.11804L5.34165 3.55279ZM9.32574 8L10.7543 3H13.2457L14.6743 8H9.32574ZM14.646 10H9.35397L12 18.5996L14.646 10ZM13.929 19.1312L16.7386 10H20.5412L13.929 19.1312ZM16.7543 8L15.3257 3H17.7639C18.1427 3 18.489 3.214 18.6584 3.55279L20.882 8H16.7543ZM3.4588 10H7.26143L10.071 19.1312L3.4588 10Z" fill="#0F0F0F"/>
</svg>